<?xml version="1.0" encoding="UTF-8"?>
<svg width="1200pt" height="1200pt" version="1.1" viewBox="0 0 1200 1200" xmlns="http://www.w3.org/2000/svg">
 <g fill="#eee">
  <path d="m1131.3 308.67h-489c-16.641-64.59-56.273-120.89-111.46-158.35-55.188-37.457-122.14-53.496-188.31-45.113-66.168 8.3828-127.01 40.617-171.11 90.652-44.105 50.035-68.441 114.44-68.449 181.14-1.3242 18.996 5.2969 37.688 18.285 51.613 12.984 13.926 31.172 21.836 50.215 21.836s37.23-7.9102 50.215-21.836c12.988-13.926 19.609-32.617 18.285-51.613 2.3359-47.398 28.98-90.23 70.461-113.28 41.484-23.051 91.926-23.051 133.41 0 41.48 23.051 68.125 65.883 70.461 113.28 0 18.211 7.2344 35.676 20.113 48.555 12.879 12.879 30.344 20.113 48.555 20.113h548.33c18.996 1.3242 37.691-5.2969 51.617-18.285 13.926-12.988 21.832-31.176 21.832-50.215 0-19.043-7.9062-37.23-21.832-50.219s-32.621-19.609-51.617-18.281z"/>
  <path d="m891.33 548.67h-617c-49.207-1.7188-97.969 9.8398-141.17 33.461-43.203 23.621-79.25 58.434-104.36 100.79-25.109 42.352-38.363 90.684-38.363 139.92 0 49.238 13.254 97.566 38.363 139.92 25.113 42.352 61.16 77.164 104.36 100.79 43.199 23.621 91.961 35.18 141.17 33.465h617c49.207 1.7148 97.969-9.8438 141.17-33.465 43.199-23.621 79.25-58.434 104.36-100.79 25.113-42.352 38.363-90.68 38.363-139.92 0-49.234-13.25-97.566-38.363-139.92-25.109-42.352-61.16-77.164-104.36-100.79-43.203-23.621-91.965-35.18-141.17-33.461zm0 411.33h-617c-37.551 1.8516-74.219-11.773-101.45-37.695-27.234-25.922-42.648-61.875-42.648-99.473 0-37.594 15.414-73.547 42.648-99.469 27.23-25.926 63.898-39.547 101.45-37.695h617c37.551-1.8516 74.223 11.77 101.45 37.695 27.23 25.922 42.645 61.875 42.645 99.469 0 37.598-15.414 73.551-42.645 99.473-27.23 25.922-63.902 39.547-101.45 37.695z"/>
  <path d="m343 823c0 37.922-30.742 68.668-68.668 68.668-37.922 0-68.664-30.746-68.664-68.668s30.742-68.668 68.664-68.668c37.926 0 68.668 30.746 68.668 68.668"/>
  <path d="m548.67 823c0 37.922-30.746 68.668-68.668 68.668s-68.668-30.746-68.668-68.668 30.746-68.668 68.668-68.668 68.668 30.746 68.668 68.668"/>
  <path d="m754.33 823c0 37.922-30.742 68.668-68.664 68.668-37.926 0-68.668-30.746-68.668-68.668s30.742-68.668 68.668-68.668c37.922 0 68.664 30.746 68.664 68.668"/>
  <path d="m960 823c0 37.922-30.742 68.668-68.668 68.668-37.922 0-68.664-30.746-68.664-68.668s30.742-68.668 68.664-68.668c37.926 0 68.668 30.746 68.668 68.668"/>
 </g>
</svg>
