<?xml version="1.0" encoding="UTF-8"?>
<svg width="1200pt" height="1200pt" version="1.1" viewBox="0 0 1200 1200" xmlns="http://www.w3.org/2000/svg">
 <path d="m586.8 440.4c-2.3984 6-3.6016 10.801-4.8008 15.602v1.1992l1.1992-1.1992c4.8008-2.3984 9.6016-4.8008 14.398-7.1992 1.1992-4.8008 3.6016-10.801 6-15.602l1.1992-2.3984-2.3984 1.1992c-4.7969 3.6016-9.5977 6-15.598 8.3984zm37.199-42-2.3984 1.1992c-7.1992 2.3984-13.199 6-20.398 8.3984-2.3984 4.8008-4.8008 9.6016-7.1992 15.602l-1.1992 2.3984 2.3984-1.1992c6-2.3984 12-6 18-8.3984 3.6016-6 6-10.801 9.6016-15.602zm-3.6016 26.402c-2.3984 8.3984-4.8008 13.199-4.8008 15.602v1.1992l1.1992-1.1992c4.8008-2.3984 9.6016-4.8008 14.398-6 1.1992-4.8008 3.6016-9.6016 4.8008-15.602l1.1992-2.3984-1.1953 1.1992c-4.8008 2.3984-9.6016 4.7969-15.602 7.1992zm-435.6 74.398-136.8 100.8 7.1992 10.801 136.8-102zm-48 262.8-60 27.602 4.8008 12 60-27.602zm637.2-406.8c-2.3984 3.6016-4.8008 8.3984-6 12v1.1992h1.1992c4.8008-1.1992 9.6016-1.1992 14.398-2.3984 1.1992-3.6016 3.6016-7.1992 6-10.801l1.1992-1.1992h-1.1992c-4.7969 0-10.797 1.1992-15.598 1.1992zm-9.6016 25.199c-2.3984 4.8008-3.6016 8.3984-4.8008 12v1.1992h1.1992c4.8008-1.1992 9.6016-2.3984 13.199-2.3984 1.1992-3.6016 2.3984-7.1992 3.6016-10.801v-1.1992h-1.1992c-3.5977-1.1992-7.1992 0-12 1.1992zm-490.8 478.8 3.6016 12 181.2-50.398-3.6016-12zm453.6-495.6c-2.3984 4.8008-4.8008 8.3984-7.1992 13.199l-1.1992 1.1992h1.1992c4.8008-1.1992 9.6016-2.3984 15.602-3.6016 2.3984-4.8008 4.8008-8.3984 7.1992-12l1.1992-2.3984h-2.3984c-4.8008 1.1992-9.6016 2.3984-14.402 3.6016zm423.6-1.2031v0c-1.1992 2.3984-1.1992 3.6016-1.1992 4.8008-56.402 162-177.6 262.8-273.6 302.4l-300 85.199 4.8008 31.199-62.398 18v-16.801l-20.398-10.801-157.2 44.398h-9.6016c-18 0-36-4.8008-51.602-13.199-42 28.801-97.199 66-134.4 90l-0.003906 2.4023-42 6-6-21.602 30-15.602c42-38.398 87.602-82.801 90-90 1.1992-1.1992 2.3984-8.3984 2.3984-31.199v-3.6016c-2.3984-4.8008-3.6016-9.6016-6-14.398-15.602-48-8.3984-114 58.801-154.8l8.3984-4.8008-48-96-22.801-9.6016 54-40.801 135.6 80.398 264-150c102-43.199 246-86.398 459.6-34.801 10.801 2.3984 19.199 9.6016 24 19.199 2.3984 4.8008 4.8008 10.801 4.8008 16.801 0 1.207 0 4.8086-1.1992 7.207zm-848.4 385.2c-10.801 2.3984-22.801 8.3984-44.398 15.602-27.602 10.797-126 110.4-126 110.4l-27.602 14.398 34.801-7.1992c1.1992-1.1992 177.6-136.8 163.2-133.2zm576-292.8-4.8008-12c-3.6016 1.1992-12 4.8008-18 7.1992l-7.1992 3.6016 4.8008 12 8.3984-3.6016c6.0039-2.3984 14.402-6 16.801-7.1992zm175.2-57.602-3.6016-12c-1.1992 0-85.199 22.801-146.4 45.602l4.8008 12c61.199-22.801 144-44.402 145.2-45.602zm67.199-66v0c-21.602-6-42-9.6016-62.398-13.199-68.398 12-162 42-228 62.398 8.3984-21.602 24-50.398 39.602-69.602-16.801 1.1992-32.398 3.6016-48 7.1992-8.3984 7.1992-15.602 14.398-22.801 24-4.8008 0-10.801 1.1992-15.602 1.1992h-2.3984l1.1992-1.1992c4.8008-7.1992 9.6016-13.199 15.602-20.398-8.3984 2.3984-15.602 3.6016-24 6-7.1992 6-13.199 12-19.199 19.199-6 1.1992-12 2.3984-16.801 3.6016h-2.3984l1.1992-1.1992c3.6016-4.8008 7.1992-9.6016 9.6016-13.199-6 2.3984-12 3.6016-18 6-6 4.8008-10.801 8.3984-16.801 14.398-7.1992 1.1992-13.199 3.6016-20.398 6l-2.3984 1.1992 1.1992-2.3984c2.3984-2.3984 3.6016-4.8008 6-7.1992-2.3984 1.1992-3.6016 1.1992-6 2.3984v1.1992h-1.1992c-2.3984 0-4.8008 1.1992-7.1992 1.1992-1.1992 0-1.1992 1.1992-2.3984 1.1992-3.6016 2.3984-6 6-9.6016 8.3984-7.1992 2.3984-14.398 4.8008-20.398 8.3984-1.1992 0-1.1992 1.1992-2.3984 1.1992l-2.3984 1.1992c-1.1992 0-1.1992 1.1992-2.3984 1.1992l-228 129.6-126.02 70.809-7.1992 4.8008c-45.602 27.602-66 70.801-58.801 118.8 34.801-16.801 69.602-33.602 103.2-50.398 117.6-57.602 238.8-117.6 375.6-178.8 154.8-70.805 288-116.4 420-144zm-405.6 58.801c-2.3984 4.8008-3.6016 9.6016-4.8008 14.398v1.1992h1.1992c4.8008-1.1992 9.6016-2.3984 13.199-3.6016 1.1992-4.8008 3.6016-8.3984 4.8008-13.199l1.1992-1.1992h-1.1992c-4.7969 0.003906-9.5977 1.2031-14.398 2.4023zm-49.199 15.602c-2.3984 6-3.6016 10.801-4.8008 15.602v1.1992l1.1992-1.1992c4.8008-1.1992 9.6016-3.6016 14.398-4.8008 1.1992-4.8008 3.6016-9.6016 6-14.398l1.1992-1.1992-2.3984 1.1992c-5.9961-0.003906-10.797 1.1953-15.598 3.5977zm13.199-28.801c-2.3984 4.8008-4.8008 9.6016-7.1992 14.398l-1.1992 2.3984 2.3984-1.1992c4.8008-2.3984 10.801-3.6016 16.801-4.8008 2.3984-4.8008 6-9.6016 8.3984-13.199l1.1992-2.3984-2.3984 1.1992c-6 0-12 1.1992-18 3.6016zm-45.598 18c-2.3984 4.8008-4.8008 9.6016-7.1992 14.398l-1.1992 2.3984 2.3984-1.1992c6-2.3984 12-4.8008 16.801-7.1992 2.3984-4.8008 6-9.6016 8.3984-14.398l1.1992-2.3984-3.6016 1.1992c-3.5977 2.3984-10.797 4.7969-16.797 7.1992z" fill="#eee"/>
</svg>
